<svg width="44" height="44" fill="none" xmlns="http://www.w3.org/2000/svg"><path fill-rule="evenodd" clip-rule="evenodd" d="M22 44c12.15 0 22-9.85 22-22S34.15 0 22 0 0 9.85 0 22s9.85 22 22 22z" fill="#DC4A3D"/><path fill-rule="evenodd" clip-rule="evenodd" d="M22.117 20.366v3.268s3.118-.005 4.388-.005c-.688 2.118-1.757 3.272-4.388 3.272-2.663 0-4.742-2.194-4.742-4.901s2.079-4.901 4.742-4.901c1.408 0 2.317.503 3.151 1.204.668-.678.612-.775 2.31-2.406a8.015 8.015 0 0 0-5.461-2.147C17.634 13.75 14 17.444 14 22s3.634 8.25 8.117 8.25c6.7 0 8.338-5.93 7.795-9.884h-7.795z" fill="#fff"/></svg>